<svg xmlns="http://www.w3.org/2000/svg" xmlns:xlink="http://www.w3.org/1999/xlink" width="44" height="44" viewBox="0 0 44 44">
    <defs>
        <path id="a" d="M43.014 34.802l-6.796-6.811c-1.353-1.351-3.594-1.31-4.995.094l-3.423 3.43-.676-.376c-2.162-1.201-5.12-2.846-8.234-5.97-3.123-3.129-4.766-6.099-5.968-8.267-.127-.23-.248-.451-.368-.662l2.298-2.299 1.13-1.134c1.402-1.406 1.44-3.652.09-5.007L9.277.988c-1.35-1.353-3.592-1.312-4.995.095l-1.915 1.93c-.59.873-1.127 1.82-1.526 2.842-.368.972-.597 1.9-.702 2.83-.897 7.455 2.502 14.268 11.727 23.514 12.751 12.78 23.027 11.814 23.47 11.767a11.46 11.46 0 0 0 2.832-.713 11.03 11.03 0 0 0 2.773-1.574l1.982-1.867c1.4-1.406 1.44-3.653.09-5.01z"/>
    </defs>
    <use fill="#75AF26" fill-rule="nonzero" xlink:href="#a"/>
</svg>
